<svg xmlns="http://www.w3.org/2000/svg" viewBox="0 0 72 72" style="enable-background:new 0 0 72 72" xml:space="preserve"><path d="M61 14.175c-4.6-2.1-9.5-3.7-14.7-4.5-.1 0-.2 0-.2.1-.6 1.1-1.3 2.6-1.8 3.7-5.5-.8-11-.8-16.5 0-.5-1.2-1.2-2.6-1.9-3.7 0-.1-.1-.1-.2-.1-5.1.9-10.1 2.4-14.7 4.5 0 0-.1 0-.1.1-9.3 13.9-11.9 27.5-10.6 41 0 .1 0 .1.1.2 6.2 4.5 12.1 7.3 18 9.1.1 0 .2 0 .3-.1 1.4-1.9 2.6-3.9 3.7-6 .1-.1 0-.3-.1-.3-2-.7-3.8-1.6-5.6-2.7-.1-.1-.2-.3 0-.4.4-.3.8-.6 1.1-.9.1-.1.2-.1.2 0 11.8 5.4 24.5 5.4 36.2 0h.2c.4.3.7.6 1.1.9.1.1.1.3 0 .4-1.8 1-3.7 1.9-5.6 2.7-.1 0-.2.2-.1.3 1.1 2.1 2.3 4.1 3.7 6 .1.1.2.1.3.1 5.9-1.8 11.8-4.6 18-9.1.1 0 .1-.1.1-.2 1.3-15.6-2.7-29-10.9-41.1 0 .1 0 0 0 0zm-36.9 32.9c-3.5 0-6.5-3.3-6.5-7.3s2.9-7.3 6.5-7.3 6.5 3.3 6.5 7.3c-.1 4-2.9 7.3-6.5 7.3zm23.9 0c-3.5 0-6.5-3.3-6.5-7.3s2.9-7.2 6.5-7.2 6.5 3.3 6.5 7.3c0 3.9-2.9 7.2-6.5 7.2z" style="fill:#5865f2"/></svg>