<?xml version="1.0" encoding="utf-8"?>
<!-- Generator: Adobe Illustrator 23.0.4, SVG Export Plug-In . SVG Version: 6.00 Build 0)  -->
<svg version="1.1" id="Layer_1" xmlns="http://www.w3.org/2000/svg" xmlns:xlink="http://www.w3.org/1999/xlink" x="0px" y="0px"
	 viewBox="0 0 72 72" style="enable-background:new 0 0 72 72;" xml:space="preserve">
<style type="text/css">
	.st0{fill:#D51007;}
	.st1{fill:#FFFFFF;}
</style>
<g id="Twitter">
	<rect class="st0" width="72" height="72"/>
</g>
<g id="Guides">
</g>
<path class="st1" d="M33.7,43.6l-1.3-3.6c0,0-2.1,2.5-5.4,2.5c-2.9,0-4.8-2.5-4.8-6.5c0-5,2.5-6.9,5-6.9c3.6,0,4.8,2.3,5.9,5.4
	l1.3,4.2c1.3,4,3.8,7.3,11.1,7.3c5.2,0,8.6-1.7,8.6-5.7c0-3.3-1.9-5-5.4-5.9L45.8,34c-1.9-0.4-2.3-1.3-2.3-2.5c0-1.5,1-2.3,2.9-2.3
	c2.1,0,3.1,0.8,3.3,2.5l4.2-0.4c-0.4-3.8-2.9-5.2-7.1-5.2c-3.8,0-7.3,1.5-7.3,5.9c0,2.9,1.5,4.6,4.8,5.4l2.9,0.6
	c2.1,0.4,2.9,1.5,2.9,2.5c0,1.5-1.5,2.1-4.4,2.1c-4.2,0-5.9-2.3-6.9-5.2l-1.5-4.2c-1.7-5.4-4.6-7.3-10-7.3c-6.1,0-9.4,3.8-9.4,10.5
	c0,6.3,3.3,9.8,9,9.8C31.4,45.7,33.7,43.6,33.7,43.6z"/>
</svg>
