<svg version="1.1" id="Layer_1" xmlns="http://www.w3.org/2000/svg" x="0" y="0" viewBox="0 0 72 72" xml:space="preserve"><style>.st1{fill:#fff}</style><path fill="#f58aab" d="M0 0h72v72H0z"/><path id="osu_x21__x5F_txt_x5F_Path_2_" class="st1" d="M27.014 39.767c-.563 0-1.055-.096-1.475-.276a2.68 2.68 0 0 1-1.032-.768 3.333 3.333 0 0 1-.624-1.151 4.566 4.566 0 0 1-.204-1.428c0-.516.072-.996.204-1.44a3.39 3.39 0 0 1 .624-1.163 3.05 3.05 0 0 1 1.032-.78c.408-.192.911-.288 1.475-.288.564 0 1.056.096 1.476.288.42.192.768.444 1.056.78.276.324.48.72.624 1.163.132.444.203.924.203 1.44s-.072.984-.203 1.428a2.98 2.98 0 0 1-.624 1.151 2.766 2.766 0 0 1-1.056.768c-.408.192-.912.276-1.476.276zm0-1.452c.504 0 .864-.192 1.08-.563.216-.372.324-.912.324-1.608s-.108-1.236-.324-1.608c-.216-.372-.576-.563-1.08-.563-.492 0-.851.191-1.067.563s-.324.912-.324 1.608c0 .696.108 1.236.324 1.608.216.383.575.563 1.067.563zm6.215-1.74c-.504-.143-.9-.36-1.176-.635-.288-.288-.42-.708-.42-1.272 0-.683.24-1.211.732-1.607.492-.384 1.152-.576 2.003-.576a5.893 5.893 0 0 1 2.064.384c-.024.228-.06.48-.132.732a3.794 3.794 0 0 1-.252.66 8.12 8.12 0 0 0-.708-.24 3.1 3.1 0 0 0-.816-.096c-.3 0-.54.048-.707.144-.168.095-.252.24-.252.455 0 .192.06.336.18.42s.288.156.515.228l.768.228c.252.072.48.156.684.264s.372.228.516.384.252.336.336.564c.084.228.12.504.12.816 0 .336-.072.635-.204.923a2.11 2.11 0 0 1-.6.744c-.264.216-.588.372-.96.504a4.2 4.2 0 0 1-1.283.18c-.216 0-.408-.012-.588-.024a3.562 3.562 0 0 1-.516-.072 7.333 7.333 0 0 1-.492-.12 9.318 9.318 0 0 1-.528-.18c.012-.24.06-.492.132-.732.072-.252.156-.492.264-.72.3.12.576.204.84.264.264.06.54.084.828.084.12 0 .264-.012.408-.036.144-.024.287-.06.407-.12a.999.999 0 0 0 .312-.228.54.54 0 0 0 .132-.371c0-.216-.06-.372-.192-.468a1.892 1.892 0 0 0-.54-.252l-.875-.228zm4.714-3.922a6.48 6.48 0 0 1 .96-.084c.312 0 .636.024.96.084v3.683c0 .372.024.672.084.912.06.24.144.432.264.564.12.143.276.24.456.3s.396.083.636.083c.336 0 .611-.036.84-.096v-5.446c.323-.048.635-.084.947-.084.312 0 .636.024.96.084v6.694c-.288.096-.672.192-1.14.288s-.96.144-1.475.144c-.456 0-.9-.036-1.32-.108a2.713 2.713 0 0 1-1.116-.456c-.324-.228-.576-.576-.756-1.02-.192-.443-.288-1.043-.288-1.787v-3.755h-.012zm7.906 6.958a6.951 6.951 0 0 1-.084-.984c0-.324.024-.66.084-.995.336-.048.66-.084.984-.084.324 0 .66.024.996.084.048.335.084.671.084.983 0 .336-.024.66-.084.996a7.104 7.104 0 0 1-.984.084 9.288 9.288 0 0 1-.996-.084zm-.048-9.681a7.63 7.63 0 0 1 1.032-.084c.348 0 .696.024 1.056.084l-.132 6.586a5.981 5.981 0 0 1-.9.084c-.3 0-.612-.024-.912-.084l-.144-6.586z"/><path id="Rim_6_" class="st1" d="M36 18.005c-9.933 0-17.995 8.062-17.995 17.995S26.067 53.995 36 53.995 53.995 45.933 53.995 36 45.933 18.005 36 18.005zm0 34.19c-8.95 0-16.196-7.245-16.196-16.195S27.05 19.804 36 19.804 52.196 27.05 52.196 36 44.95 52.196 36 52.196z"/></svg>